<svg width="107" height="104" viewBox="0 0 107 104" fill="none" xmlns="http://www.w3.org/2000/svg">
<g id="Frame" clip-path="url(#clip0_2_271)">
<path id="Vector" d="M53.4689 103C81.9289 103 105 80.1665 105 52C105 23.8335 81.9289 1 53.4689 1C25.009 1 1.93768 23.8335 1.93768 52C1.93768 80.1665 25.009 103 53.4689 103Z" stroke="black" stroke-width="2"/>
<path id="Vector_2" d="M53.4689 44V20" stroke="black" stroke-width="2"/>
<path id="Vector_3" d="M53.4689 84V60" stroke="black" stroke-width="2"/>
<path id="Vector_4" d="M61.5522 52H85.8022" stroke="black" stroke-width="2"/>
<path id="Vector_5" d="M21.1356 52H45.3856" stroke="black" stroke-width="2"/>
<path id="Vector_6" d="M59.1846 46.3432L70.6161 35.0295" stroke="black" stroke-width="2"/>
<path id="Vector_7" d="M36.2919 69.3137L47.7234 58" stroke="black" stroke-width="2"/>
<path id="Vector_8" d="M47.7234 45.3432L36.2919 34.0295" stroke="black" stroke-width="2"/>
<path id="Vector_9" d="M70.6162 68.3137L59.1846 57" stroke="black" stroke-width="2"/>
<path id="Vector_10" d="M53.4689 55C55.143 55 56.5002 53.6569 56.5002 52C56.5002 50.3431 55.143 49 53.4689 49C51.7948 49 50.4377 50.3431 50.4377 52C50.4377 53.6569 51.7948 55 53.4689 55Z" stroke="black" stroke-width="2"/>
</g>
<defs>
<clipPath id="clip0_2_271">
<rect width="105.083" height="104" fill="white" transform="translate(0.927277)"/>
</clipPath>
</defs>
</svg>
